<svg width="29" height="23" viewBox="0 0 29 23" fill="none" xmlns="http://www.w3.org/2000/svg">
<path fill-rule="evenodd" clip-rule="evenodd" d="M0 11.25C0 10.4733 0.6296 9.84375 1.40625 9.84375H20.5113L14.4744 3.80687C13.9252 3.2577 13.9252 2.3673 14.4744 1.81813C15.0236 1.26895 15.9139 1.26895 16.4631 1.81813L24.9006 10.2556C25.4498 10.8048 25.4498 11.6952 24.9006 12.2444L16.4631 20.6819C15.9139 21.231 15.0236 21.231 14.4744 20.6819C13.9252 20.1327 13.9252 19.2423 14.4744 18.6931L20.5113 12.6562H1.40625C0.6296 12.6562 0 12.0266 0 11.25Z" fill="#191919"/>
<path fill-rule="evenodd" clip-rule="evenodd" d="M26.7188 0C27.4954 0 28.125 0.6296 28.125 1.40625V21.0938C28.125 21.8704 27.4954 22.5 26.7188 22.5C25.9421 22.5 25.3125 21.8704 25.3125 21.0938V1.40625C25.3125 0.6296 25.9421 0 26.7188 0Z" fill="#191919"/>
</svg>
