<svg width="38" height="40" viewBox="0 0 38 40" fill="none" xmlns="http://www.w3.org/2000/svg">
<path d="M21.753 0H9.36327C6.77768 0 4.68164 2.18337 4.68164 4.8767V34.1369C4.68164 36.8302 6.77768 39.0136 9.36327 39.0136H28.0898C30.6754 39.0136 32.7714 36.8302 32.7714 34.1369V11.4776C32.7714 10.8309 32.5248 10.2107 32.0858 9.7534L23.4082 0.714176C22.9692 0.256897 22.3738 0 21.753 0ZM22.2378 8.53422V3.65752L29.2602 10.9726H24.5786C23.2858 10.9726 22.2378 9.88089 22.2378 8.53422ZM19.8969 17.0684V20.726H23.4082C24.0546 20.726 24.5786 21.2718 24.5786 21.9451C24.5786 22.6185 24.0546 23.1643 23.4082 23.1643H19.8969V26.8218C19.8969 27.4952 19.3729 28.041 18.7265 28.041C18.0801 28.041 17.5561 27.4952 17.5561 26.8218V23.1643H14.0449C13.3985 23.1643 12.8745 22.6185 12.8745 21.9451C12.8745 21.2718 13.3985 20.726 14.0449 20.726H17.5561V17.0684C17.5561 16.3951 18.0801 15.8493 18.7265 15.8493C19.3729 15.8493 19.8969 16.3951 19.8969 17.0684Z" fill="white"/>
</svg>
