<?xml version="1.0" encoding="UTF-8"?>
<svg version="1.1" xmlns="http://www.w3.org/2000/svg" width="512" height="512">
<path d="M0 0 C1.40806709 -0.00461614 2.81612935 -0.01097382 4.22418165 -0.01890898 C8.07035152 -0.03552783 11.91612177 -0.0273902 15.76229262 -0.0149641 C19.91915636 -0.00588523 24.07595308 -0.01989736 28.23280334 -0.03088379 C36.36695105 -0.0486434 44.50095087 -0.04484045 52.6351043 -0.03323323 C59.24758815 -0.02418909 65.86003065 -0.02297914 72.47251892 -0.02732849 C73.41467498 -0.02794142 74.35683103 -0.02855436 75.32753727 -0.02918586 C77.24168163 -0.0304648 79.15582597 -0.03176165 81.06997031 -0.03307623 C99.00677203 -0.04447453 116.9434919 -0.03138009 134.8802802 -0.00987476 C150.26125154 0.00799554 165.64210212 0.00489122 181.02307129 -0.0135498 C198.89695043 -0.03496976 216.77075789 -0.04337596 234.64464808 -0.03110075 C236.55163732 -0.02982659 238.45862658 -0.02856911 240.36561584 -0.02732849 C241.30382045 -0.02671139 242.24202505 -0.02609429 243.2086601 -0.02545848 C249.81099419 -0.02200896 256.41328271 -0.02782535 263.01560974 -0.0372467 C271.06482588 -0.04848056 279.11388605 -0.04539751 287.16308439 -0.02412373 C291.26767011 -0.01363195 295.37199604 -0.00945937 299.47657967 -0.02272034 C303.2381783 -0.03468914 306.99927771 -0.02800857 310.76083142 -0.00681013 C312.75716931 -0.00026543 314.75354219 -0.01323994 316.74984312 -0.02703905 C327.63973399 0.06749665 335.87228485 2.5400475 343.87219238 10.08605957 C349.84464468 17.1527016 353.04730723 25.28859435 353.0393219 34.45574951 C353.0413839 36.28145477 353.0413839 36.28145477 353.04348755 38.14404297 C353.03994867 39.48962427 353.03631387 40.83520532 353.03259277 42.18078613 C353.03231065 43.60007729 353.03246913 45.01936859 353.03303528 46.43865967 C353.03332227 50.28955244 353.02744137 54.14041409 353.02046132 57.99129963 C353.01421147 62.01651667 353.01362269 66.04173442 353.01243591 70.06695557 C353.00932742 77.6883454 353.0011205 85.3097209 352.99108642 92.93110442 C352.97991036 101.60817643 352.97441107 110.28524912 352.96939099 118.96232653 C352.9589375 136.81087067 352.94134736 154.65940147 352.91906738 172.50793457 C353.59979309 172.3670491 354.2805188 172.22616364 354.98187256 172.08100891 C355.87799255 171.89809799 356.77411255 171.71518707 357.6973877 171.5267334 C359.02785126 171.2535302 359.02785126 171.2535302 360.38519287 170.97480774 C376.65656426 167.97676396 394.54224962 172.64518727 408.10656738 181.82043457 C424.07110627 193.69150195 434.6569436 208.57035421 437.91906738 228.50793457 C438.51854836 234.83092285 438.49719056 241.17099913 438.44055176 247.51672363 C438.41893909 250.40005033 438.44054786 253.28092898 438.46594238 256.16418457 C438.46330141 258.02616915 438.45818122 259.88815223 438.45031738 261.75012207 C438.46246277 263.02071976 438.46246277 263.02071976 438.47485352 264.31698608 C438.36575907 271.34094289 436.38718238 277.1135573 432.24328613 282.81262207 C425.67182183 289.11746371 418.9907932 291.47931714 409.91906738 291.50793457 C402.66077927 290.88733745 396.26625845 287.05010764 391.30969238 281.80480957 C386.66355285 275.73749795 385.63386113 269.12486581 385.61047363 261.59777832 C385.58532922 260.09842521 385.55993099 258.59907634 385.53430176 257.09973145 C385.50554276 254.76730311 385.48148324 252.43494784 385.46276855 250.10241699 C385.44103242 247.82967709 385.40161314 245.557738 385.36047363 243.28527832 C385.36029991 242.24910622 385.36029991 242.24910622 385.36012268 241.19200134 C385.24355091 235.44451562 383.74091869 231.4369536 379.79406738 227.25793457 C375.37735017 224.56949801 370.94521236 223.03696031 365.73547363 223.84777832 C360.57246194 225.49720928 357.95802506 228.08763249 354.91906738 232.50793457 C353.75715109 235.99368345 353.75868724 238.77905184 353.71374512 242.45788574 C353.70384552 243.1605809 353.69394592 243.86327606 353.68374634 244.58726501 C353.65217504 246.90844358 353.62739126 249.22964262 353.60266113 251.55090332 C353.58208783 253.1608788 353.56109125 254.77084893 353.53968811 256.3808136 C353.48450632 260.61729595 353.43507989 264.85382673 353.38684082 269.09039307 C353.33659737 273.41386218 353.28092615 277.73726101 353.22570801 282.06066895 C353.11817405 290.54303138 353.01671851 299.02545264 352.91906738 307.50793457 C353.95952713 307.49905212 354.99998688 307.49016968 356.07197571 307.48101807 C365.9135881 307.39966486 375.75513159 307.33984138 385.59700489 307.30068588 C390.65591848 307.27987835 395.71455897 307.2516865 400.77331543 307.20617676 C405.66221968 307.16247407 410.55086249 307.13874616 415.43994713 307.1284256 C417.29813434 307.12107784 419.15630847 307.10673015 421.01438332 307.08501434 C436.2012602 306.91470221 448.66612164 308.6336681 460.11437988 319.61340332 C467.17449558 327.18153472 472.15120317 335.84855209 472.18649292 346.43241882 C472.19502289 347.59433746 472.20355286 348.7562561 472.21234131 349.9533844 C472.21143494 351.21428391 472.21052856 352.47518341 472.20959473 353.77429199 C472.21558468 355.12677377 472.2223913 356.47925215 472.22994995 357.83172607 C472.24757377 361.49523406 472.25230391 365.15864853 472.25358152 368.82219481 C472.2550062 371.11553075 472.25928189 373.40884316 472.26457596 375.70217323 C472.28306717 383.71597417 472.29124807 391.72970871 472.28967285 399.74353027 C472.28847302 407.1916621 472.30954633 414.63950341 472.34116018 422.08756179 C472.36739512 428.49885572 472.37803707 434.91005523 472.37676203 441.32140237 C472.37625434 445.14305965 472.38182961 448.96445883 472.40311813 452.78606224 C472.42262178 456.38543883 472.42254344 459.98431444 472.40808487 463.58370972 C472.40502915 465.51744543 472.42158972 467.45118185 472.43896484 469.38484192 C472.35708111 480.86380074 469.52885792 489.84788239 461.91906738 498.50793457 C461.41762207 499.11379395 460.91617676 499.71965332 460.39953613 500.34387207 C454.90406557 506.46777844 447.01292226 510.88724035 438.91906738 512.50793457 C437.02852162 512.60644506 435.1349028 512.65134632 433.24182129 512.66183472 C432.08409714 512.67043518 430.92637299 512.67903564 429.73356628 512.68789673 C428.46704727 512.69215668 427.20052826 512.69641663 425.89562988 512.70080566 C424.54506726 512.70871169 423.19450672 512.71698094 421.84394836 512.72558594 C417.41067508 512.75175919 412.97739262 512.76711388 408.54406738 512.78137207 C407.01388545 512.78673463 405.48370356 512.79211214 403.95352173 512.79750443 C397.58310259 512.81913072 391.21268592 512.83786303 384.84223938 512.84912682 C375.73629161 512.86533676 366.63077249 512.89844497 357.52498627 512.95552766 C351.11033388 512.99435687 344.69579549 513.01377506 338.28102875 513.01904738 C334.456424 513.02268459 330.63227691 513.03452926 326.80780029 513.06715012 C323.20265294 513.09745884 319.59823462 513.10346289 315.99298668 513.09176636 C314.0581868 513.09144408 312.12343038 513.11575976 310.188797 513.1411438 C297.36938891 513.05079425 287.27497673 508.49450956 278.05187988 499.73449707 C270.61223011 491.91168937 266.78570587 482.52315057 266.80554199 471.81164551 C266.80539597 471.1478186 266.80524994 470.4839917 266.80509949 469.80004883 C266.80579406 467.61410207 266.81356507 465.42824138 266.82141113 463.24230957 C266.82327693 461.72345018 266.82470007 460.20459019 266.82569885 458.68572998 C266.82951129 454.69415618 266.83933068 450.70261895 266.85040283 446.71105957 C266.86064435 442.63554377 266.86520234 438.56002204 266.87023926 434.48449707 C266.88095411 426.49229282 266.89801522 418.50011825 266.91906738 410.50793457 C266.03866031 410.50964331 266.03866031 410.50964331 265.14046723 410.51138657 C230.34359219 410.57853999 195.54672831 410.63000395 160.74980194 410.66113056 C156.57046518 410.66488262 152.39112855 410.66876559 148.21179199 410.67272949 C146.9637609 410.67390989 146.9637609 410.67390989 145.69051706 410.67511413 C132.22356885 410.68816337 118.75665911 410.71181455 105.28973372 410.73939296 C91.46851099 410.76746058 77.64730839 410.7841137 63.82605833 410.79020005 C55.29955401 410.79431368 46.77315843 410.80730013 38.24668758 410.83168397 C32.39751568 410.84755791 26.5483999 410.85233118 20.69920803 410.8484387 C17.3259074 410.8465197 13.95294947 410.85108095 10.5796566 410.86555099 C6.91737895 410.88049008 3.25556551 410.87688246 -0.40672302 410.86869812 C-1.46608202 410.87743664 -2.52544103 410.88617517 -3.61690181 410.8951785 C-14.79595949 410.82771535 -23.52249326 407.45425292 -31.83874512 399.91418457 C-40.00078366 391.21894753 -40.66693576 381.20530738 -40.58886719 369.78161621 C-40.59348265 368.30342782 -40.59983989 366.82524403 -40.60777617 365.34706974 C-40.62440416 361.3070796 -40.61625311 357.26746963 -40.60383129 353.2274785 C-40.59475623 348.86202509 -40.60876268 344.49663565 -40.61975098 340.13119507 C-40.63751462 331.58797069 -40.63370583 323.04488708 -40.62210041 314.50165725 C-40.61305788 307.55688941 -40.61184564 300.61216095 -40.61619568 293.66738892 C-40.61680861 292.67805172 -40.61742154 291.68871452 -40.61805305 290.66939741 C-40.61933198 288.65942406 -40.62062884 286.64945071 -40.62194341 284.63947737 C-40.6333429 265.80278007 -40.62024541 246.96616071 -40.59874195 228.12947619 C-40.58087155 211.97531653 -40.58397583 195.82127185 -40.60241699 179.66711426 C-40.62383485 160.89669496 -40.63224432 142.12634393 -40.61996794 123.35591412 C-40.61869377 121.35343616 -40.61743629 119.3509582 -40.61619568 117.34848022 C-40.61557858 116.36328575 -40.61496147 115.37809127 -40.61432567 114.36304241 C-40.61087552 107.42858587 -40.6166939 100.49417272 -40.62611389 93.5597229 C-40.63734541 85.10610381 -40.63426957 76.65263324 -40.61299092 68.19903111 C-40.60249603 63.88787238 -40.59833195 59.57696106 -40.61158752 55.26580429 C-40.62354976 51.31547109 -40.61688631 47.36561349 -40.59567732 43.41532314 C-40.5912274 41.99015548 -40.59344117 40.56494724 -40.60318047 39.13980591 C-40.67667127 27.48764772 -38.95883511 18.76810427 -30.79187012 10.18762207 C-21.70583875 1.26754562 -12.39463932 -0.08567594 0 0 Z M-19.39343262 25.13293457 C-22.00517775 28.80872402 -22.20761438 30.74413609 -22.21515369 35.23458481 C-22.21961154 36.46102196 -22.22406938 37.6874591 -22.22866231 38.95106101 C-22.22857301 40.32449072 -22.22838314 41.69792042 -22.22810364 43.0713501 C-22.2314013 44.52073079 -22.23512666 45.97011056 -22.23924512 47.41948915 C-22.24928436 51.41674213 -22.25298499 55.4139801 -22.25563443 59.41124392 C-22.25953179 63.7167554 -22.2691105 68.02225492 -22.27784729 72.32775879 C-22.29762777 82.73267731 -22.3076799 93.13759683 -22.31657508 103.54252946 C-22.32095537 108.43906173 -22.32632285 113.33559292 -22.33156395 118.23212433 C-22.34857779 134.50362295 -22.36307279 150.77512089 -22.37031269 167.04662704 C-22.37222267 171.27103425 -22.37414299 175.49544145 -22.37609863 179.71984863 C-22.37658237 180.76984017 -22.37706611 181.8198317 -22.37756451 182.90164116 C-22.38586787 199.91739189 -22.41120925 216.93307238 -22.44367931 233.94879243 C-22.47672398 251.40757773 -22.4947591 268.86632731 -22.49795693 286.32514405 C-22.50012443 296.13204695 -22.50890809 305.93884743 -22.53441811 315.74571991 C-22.55608972 324.09642046 -22.56419301 332.44699373 -22.55445132 340.79771921 C-22.54989632 345.05973674 -22.5518622 349.32149146 -22.57121277 353.58347321 C-22.58877204 357.48454938 -22.58790611 361.38516962 -22.57231548 365.28625014 C-22.56992834 366.69813716 -22.57432008 368.11005514 -22.58614413 369.52189466 C-22.87285952 379.38128874 -22.87285952 379.38128874 -18.08093262 387.50793457 C-13.91512074 391.26732578 -10.96041574 392.63350144 -5.38577747 392.6309824 C-3.92946689 392.63396897 -3.92946689 392.63396897 -2.4437359 392.63701588 C-0.84015467 392.63264662 -0.84015467 392.63264662 0.79582214 392.62818909 C1.92952942 392.62904351 3.0632367 392.62989794 4.23129874 392.63077825 C8.05000762 392.63243222 11.86867307 392.626913 15.68737793 392.62145996 C18.41685006 392.62062197 21.14632132 392.62129182 23.87579346 392.62190247 C29.76237632 392.62242732 35.64894811 392.61928456 41.53552818 392.61366463 C50.04657872 392.60554439 58.55762389 392.60293387 67.06867788 392.60167664 C80.87663953 392.59948694 94.68459527 392.59282909 108.49255371 392.58337402 C121.90726695 392.57419777 135.32197859 392.56711798 148.73669434 392.56286621 C149.56330394 392.56260349 150.38991355 392.56234076 151.24157193 392.56207008 C155.38834775 392.56076506 159.53512359 392.55950135 163.68189943 392.55825818 C198.09429303 392.54788814 232.50667948 392.53019783 266.91906738 392.50793457 C266.91906738 387.22793457 266.91906738 381.94793457 266.91906738 376.50793457 C265.58647133 376.50646801 264.25387527 376.50500145 262.88089752 376.50349045 C231.24059942 376.4677807 199.60041122 376.41152835 167.96019974 376.33001362 C164.06497892 376.31999628 160.16975767 376.31015213 156.27453613 376.30041504 C155.1113441 376.29750298 155.1113441 376.29750298 153.92465323 376.29453209 C141.37206765 376.26351951 128.81950034 376.24653351 116.26688367 376.23474035 C103.38465155 376.22232494 90.50251529 376.19481475 77.62034369 376.1533215 C69.67271772 376.12819721 61.72525074 376.11481651 53.77758449 376.116505 C47.6810522 376.1165383 41.58477598 376.09555985 35.48830414 376.06676674 C32.98898957 376.05824624 30.48964112 376.05653232 27.9903183 376.06213188 C24.5770938 376.06876052 21.16483614 376.05087655 17.75170898 376.0269165 C16.26919325 376.03855713 16.26919325 376.03855713 14.7567277 376.05043292 C8.72912454 375.97556239 3.78597566 375.28655326 -1.08093262 371.50793457 C-5.8213347 365.69724181 -5.64691827 360.21245165 -5.58213806 352.92478943 C-5.58767246 351.76331298 -5.59320686 350.60183653 -5.59890896 349.40516382 C-5.61014152 346.19429946 -5.60350608 342.98405392 -5.58917224 339.77322042 C-5.57804427 336.30555111 -5.590011 332.83794984 -5.59901428 329.37028503 C-5.61293595 322.58259966 -5.60539878 315.79510053 -5.5903387 309.00742405 C-5.57346621 301.10157053 -5.57669039 293.19576324 -5.58043278 285.28989727 C-5.5863093 271.18374644 -5.57214748 257.07768492 -5.54748535 242.97155762 C-5.52356063 229.28565118 -5.51648313 215.59986403 -5.52697754 201.91394043 C-5.53838778 187.00698583 -5.54031586 172.10008639 -5.52587944 157.19313246 C-5.52435362 155.60352775 -5.52283326 154.01392303 -5.52131844 152.42431831 C-5.52056062 151.64222018 -5.51980281 150.86012206 -5.51902203 150.05432398 C-5.51428038 144.54420771 -5.51612976 139.03411607 -5.52038383 133.52400017 C-5.52531131 126.8093305 -5.51932242 120.0947736 -5.49948954 113.38012975 C-5.48962062 109.95455788 -5.48450802 106.52915768 -5.49238205 103.10357666 C-5.49832194 99.39023184 -5.48585366 95.67739507 -5.46861267 91.96409607 C-5.47462272 90.88131864 -5.48063276 89.79854121 -5.48682493 88.68295234 C-5.44054651 83.21661157 -5.23012185 79.19407364 -2.08093262 74.50793457 C2.16509202 70.58036178 5.25858655 69.38494505 10.96948624 69.37371349 C12.54472372 69.36702673 12.54472372 69.36702673 14.15178418 69.36020488 C15.30944626 69.36038924 16.46710833 69.3605736 17.65985107 69.36076355 C18.88662465 69.35708686 20.11339822 69.35341017 21.37734675 69.34962207 C24.7889416 69.34049239 28.20048833 69.33588492 31.61209083 69.33323276 C35.28910556 69.32933042 38.96610635 69.31975207 42.64311218 69.3110199 C51.52591344 69.29125417 60.40871584 69.28118943 69.29153359 69.27229211 C73.47366099 69.26790964 77.65578712 69.26254275 81.83791351 69.25730324 C95.73839175 69.24029133 109.63886919 69.22579663 123.53935623 69.2185545 C127.14688366 69.21664458 130.75441108 69.21472425 134.36193848 69.21276855 C135.70690203 69.21204294 135.70690203 69.21204294 137.07903656 69.21130268 C151.6076745 69.20300038 166.13623015 69.17765995 180.66483214 69.14518788 C195.57773623 69.11212831 210.49059849 69.09410676 225.40353942 69.09091026 C233.77797151 69.0887442 242.15228359 69.0799816 250.52667999 69.05444908 C257.6578948 69.03275718 264.78896044 69.02468421 271.92020449 69.03441586 C275.55858791 69.03896491 279.19666348 69.03703962 282.83500481 69.01765442 C286.78024782 68.99681558 290.72506529 69.00699413 294.67034912 69.02018738 C295.81908831 69.00921813 296.9678275 68.99824889 298.15137696 68.98694724 C304.61859697 69.03927147 308.71009094 69.55011632 313.91906738 73.50793457 C318.6530435 78.89099724 318.49884618 85.80866068 318.46496582 92.60559082 C318.4753035 93.68940536 318.48564117 94.77321991 318.49629211 95.88987732 C318.52564427 99.45021609 318.52721774 103.00998448 318.52844238 106.57043457 C318.54342907 109.04765909 318.56015724 111.52487364 318.57855225 114.0020752 C318.6221826 120.50559964 318.64221553 127.0089893 318.6572876 133.51263428 C318.67687404 140.15568637 318.71884237 146.7985709 318.75891113 153.44152832 C318.83416672 166.46361446 318.88524719 179.48567825 318.91906738 192.50793457 C320.37312988 191.20855957 320.37312988 191.20855957 321.85656738 189.88293457 C323.96444215 188.01146815 325.82940735 186.55345566 328.34966564 185.27390099 C331.01715824 183.90523191 332.88786099 182.72453316 334.91906738 180.50793457 C336.24673576 175.79960248 336.10028979 171.12680101 336.00427246 166.27600098 C336.00828531 164.82011902 336.01620488 163.36424339 336.02772522 161.90840149 C336.04736414 157.96325391 336.01096765 154.02042454 335.96333909 150.0755887 C335.92185704 145.94072018 335.9284085 141.80590541 335.92875671 137.67086792 C335.9222587 130.72521062 335.88129152 123.78044089 335.81774902 116.83508301 C335.74462359 108.8176527 335.71643902 100.8010965 335.71460038 92.78335249 C335.71234667 84.23339922 335.67955589 75.68376924 335.6365869 67.13393354 C335.62612197 64.67747481 335.62104683 62.221053 335.61707497 59.76457596 C335.60912949 55.89502826 335.58046182 52.02614735 335.53613853 48.15685081 C335.52292308 46.74120295 335.51632068 45.32547462 335.51701355 43.90976524 C335.51588315 36.0438533 335.28896769 30.17896225 330.91906738 23.50793457 C326.65936455 19.55249623 324.18824873 18.3838247 318.45791245 18.37371349 C317.29069302 18.36925565 316.1234736 18.36479781 314.92088389 18.36020488 C313.62733462 18.36038924 312.33378534 18.3605736 311.0010376 18.36076355 C309.62177846 18.35746579 308.2425203 18.35374041 306.86326337 18.34962207 C303.05983706 18.33958396 299.25642654 18.33588237 295.45298886 18.33323276 C291.35606796 18.32933506 287.25915961 18.31975636 283.1622467 18.3110199 C273.26159684 18.29124031 263.36094594 18.28118737 253.46028125 18.27229211 C248.80084407 18.26791164 244.14140802 18.26254421 239.48197174 18.25730324 C223.99796662 18.24028944 208.51396222 18.22579452 193.02994919 18.2185545 C189.01007842 18.21664452 184.99020766 18.2147242 180.97033691 18.21276855 C179.97118583 18.21228481 178.97203475 18.21180107 177.94260636 18.21130268 C161.75133604 18.2029996 145.56013954 18.17765869 129.36890146 18.14518788 C112.75536536 18.1121411 96.14186681 18.09410789 79.52829766 18.09091026 C70.19646902 18.08874294 60.86474802 18.07996205 51.53295135 18.05444908 C43.58665478 18.03277458 35.64049198 18.02467559 27.69416919 18.03441586 C23.63872377 18.03897005 19.58355454 18.0370098 15.52814674 18.01765442 C11.81580609 18.00008919 8.10394447 18.00096586 4.39159921 18.01655171 C2.41178617 18.02006879 0.43196849 18.003852 -1.54777551 17.98694724 C-9.89441124 18.0477646 -13.78877777 18.77089393 -19.39343262 25.13293457 Z M11.91906738 86.50793457 C11.91906738 176.26793457 11.91906738 266.02793457 11.91906738 358.50793457 C96.06906738 358.50793457 180.21906738 358.50793457 266.91906738 358.50793457 C267.24906738 352.89793457 267.57906738 347.28793457 267.91906738 341.50793457 C271.02633493 330.45987218 276.30417326 321.11509258 285.91906738 314.50793457 C290.79103268 311.89964247 295.55514157 309.84891602 300.91906738 308.50793457 C300.91906738 235.24793457 300.91906738 161.98793457 300.91906738 86.50793457 C205.54906738 86.50793457 110.17906738 86.50793457 11.91906738 86.50793457 Z M328.10656738 209.75793457 C321.53823135 218.57782788 318.74851298 229.12122007 318.80554199 239.96032715 C318.80539597 240.69257507 318.80524994 241.424823 318.80509949 242.17926025 C318.80579325 244.58702612 318.81356046 246.99471355 318.82141113 249.40246582 C318.82327722 251.07683775 318.82470022 252.75121022 318.82569885 254.42558289 C318.82950903 258.82320678 318.83932648 263.22079741 318.85040283 267.6184082 C318.86064922 272.10957388 318.86520338 276.60074494 318.87023926 281.09191895 C318.88095013 289.89727442 318.89853476 298.70259652 318.91906738 307.50793457 C324.19906738 307.50793457 329.47906738 307.50793457 334.91906738 307.50793457 C334.9336499 305.31862305 334.94823242 303.12931152 334.96325684 300.87365723 C335.0137793 293.6092492 335.08040468 286.34505155 335.1547823 279.0808506 C335.19935353 274.68009934 335.23863818 270.27943784 335.26550293 265.87854004 C335.29166894 261.62489695 335.33216343 257.37160174 335.38225365 253.11817551 C335.39883301 251.50207244 335.41040254 249.88590934 335.41668129 248.26973343 C335.46956343 235.89969577 335.94704217 224.90431232 344.91906738 215.50793457 C353.33373512 207.96551897 361.69197143 205.52159284 372.91906738 205.50793457 C382.96309244 206.36307602 390.38190722 211.40709532 397.09484863 218.64074707 C403.42864683 228.59579606 403.49005231 238.49616673 403.48156738 249.88293457 C403.4851893 252.18309072 403.49479457 254.48250068 403.52232361 256.78250122 C403.53897091 258.20149321 403.5420995 259.62073238 403.52931213 261.0397644 C403.5754292 265.35992469 404.24923204 268.08692521 406.91906738 271.50793457 C409.72802801 273.16653057 409.72802801 273.16653057 412.91906738 273.50793457 C415.84784923 272.1766701 417.65211703 270.77488492 419.91906738 268.50793457 C420.1440086 265.86213435 420.24723063 263.32440917 420.25500488 260.67590332 C420.26166168 259.88831131 420.26831848 259.1007193 420.275177 258.28926086 C420.28532134 256.61388483 420.28999347 254.93846824 420.28967285 253.26306152 C420.29398588 250.7430553 420.33011278 248.22488906 420.36828613 245.7052002 C420.48501605 229.15773563 416.61545113 214.76128897 404.91906738 202.50793457 C394.63705347 193.51983701 381.36662819 187.71261932 367.54797363 188.22277832 C350.76164596 190.04358355 338.97063255 196.96561541 328.10656738 209.75793457 Z M289.17297363 335.46887207 C284.70160952 342.74006231 284.47829885 348.74650992 284.49914551 357.16931152 C284.49067596 358.43198853 284.48220642 359.69466553 284.47348022 360.99560547 C284.4513461 364.44415892 284.44832952 367.89247285 284.45022774 371.34108758 C284.45034784 374.22846899 284.44176726 377.11580039 284.43345022 380.00316781 C284.4142444 386.82079034 284.41132162 393.63829045 284.41809082 400.45593262 C284.42472604 407.4685105 284.40188223 414.48056165 284.36477709 421.49303275 C284.3339953 427.53152741 284.3227293 433.56985338 284.3266139 439.60842484 C284.32867311 443.20708646 284.32333224 446.80533824 284.29872131 450.40392494 C284.27214449 454.42242437 284.28624615 458.43982506 284.30383301 462.45837402 C284.29056976 463.6363707 284.27730652 464.81436737 284.26364136 466.02806091 C284.35133857 474.68045854 286.3376905 481.27539826 291.98156738 487.94543457 C292.62094238 488.46105957 293.26031738 488.97668457 293.91906738 489.50793457 C294.87812988 490.31230957 294.87812988 490.31230957 295.85656738 491.13293457 C299.98532844 493.88544194 303.5854076 494.75824993 308.51570129 494.77536011 C309.63009583 494.78389008 310.74449036 494.79242004 311.89265442 494.8012085 C313.71230965 494.79984894 313.71230965 494.79984894 315.56872559 494.79846191 C316.85383026 494.80517914 318.13893494 494.81189636 319.46298218 494.81881714 C322.9817252 494.8364551 326.50037088 494.84117162 330.01915383 494.84244871 C332.22016357 494.84387227 334.42114871 494.84814578 336.62215233 494.85344315 C344.30829814 494.87193708 351.99437467 494.88011468 359.68054199 494.87854004 C366.83277008 494.87733924 373.98469611 494.89843093 381.13684779 494.93002737 C387.28735558 494.95622554 393.43776494 494.96690584 399.58832806 494.96562922 C403.25732531 494.96512056 406.92605408 494.97074971 410.5949955 494.99198532 C414.69061367 495.01504398 418.78556019 495.00582528 422.88122559 494.99377441 C424.08825638 495.00501343 425.29528717 495.01625244 426.53889465 495.02783203 C434.56230694 494.96788815 439.6416155 493.75576972 446.12609863 488.83215332 C446.92080566 488.02197754 446.92080566 488.02197754 447.73156738 487.19543457 C448.2742627 486.66305176 448.81695801 486.13066895 449.37609863 485.58215332 C454.53256952 478.65028993 454.35433633 471.99350478 454.32312012 463.63122559 C454.32998337 462.34582886 454.33684662 461.06043213 454.34391785 459.73608398 C454.36179712 456.22566977 454.36069085 452.71550624 454.35497546 449.20506024 C454.35187599 446.26778694 454.35798446 443.33056126 454.36401421 440.39329475 C454.37804063 433.46068289 454.37651389 426.52819431 454.3651123 419.59558105 C454.35363269 412.45806458 454.36770814 405.32092392 454.39450878 398.18345696 C454.41670306 392.0413889 454.4232948 385.8994385 454.41743237 379.75733322 C454.41407048 376.09508918 454.41642629 372.43308601 454.4336834 368.77087593 C454.45209814 364.68502317 454.43792732 360.59989637 454.42077637 356.51403809 C454.43044434 355.31014938 454.4401123 354.10626068 454.45007324 352.8658905 C454.38030171 344.91993795 453.33722534 339.48991239 448.02453613 333.30090332 C447.39160645 332.77109863 446.75867676 332.24129395 446.10656738 331.69543457 C445.48137207 331.15273926 444.85617676 330.61004395 444.21203613 330.05090332 C436.98903696 325.19045243 430.78893635 325.06689764 422.25769043 325.0880127 C420.99501343 325.07954315 419.73233643 325.07107361 418.43139648 325.06234741 C414.98284303 325.04021328 411.5345291 325.03719671 408.08591437 325.03909492 C405.19853296 325.03921503 402.31120156 325.03063444 399.42383415 325.02231741 C392.60621161 325.00311159 385.7887115 325.0001888 378.97106934 325.00695801 C371.95849145 325.01359322 364.9464403 324.99074942 357.9339692 324.95364428 C351.89547454 324.92286249 345.85714857 324.91159648 339.81857711 324.91548109 C336.21991549 324.9175403 332.62166371 324.91219943 329.02307701 324.8875885 C325.00457758 324.86101168 320.9871769 324.87511334 316.96862793 324.8927002 C315.79063126 324.87943695 314.61263458 324.86617371 313.39894104 324.85250854 C303.43397485 324.95350942 295.63177272 327.64119317 289.17297363 335.46887207 Z " fill="#000000" transform="translate(40.0809326171875,-0.5079345703125)"/>
<path d="M0 0 C4.2425772 3.45144088 7.05509228 7.55612467 9.6875 12.3125 C10.02910156 12.91578125 10.37070312 13.5190625 10.72265625 14.140625 C14.11661226 21.40211227 13.90367099 30.80181887 11.85546875 38.3984375 C10.438639 42.0174558 8.84573561 45.07514658 6.6875 48.3125 C6.45276312 54.00207477 7.97081764 59.68701585 9.25 65.1875 C10.93404426 72.80303021 12.02833271 80.21551115 9.5625 87.75 C6.62334347 91.76684726 3.50147832 94.70784056 -1.3125 96.3125 C-4.32530011 96.4460461 -7.31410023 96.52487379 -10.328125 96.55078125 C-11.66191193 96.56288887 -11.66191193 96.56288887 -13.02264404 96.57524109 C-14.9055385 96.58907043 -16.78845791 96.59979773 -18.67138672 96.60766602 C-21.53792421 96.62485265 -24.40330021 96.66874544 -27.26953125 96.71289062 C-29.10155404 96.72302044 -30.93358662 96.73153564 -32.765625 96.73828125 C-34.04255219 96.76454338 -34.04255219 96.76454338 -35.34527588 96.79133606 C-41.88105834 96.76774865 -46.35190604 95.29261436 -51.08984375 90.5234375 C-55.93969573 82.84858756 -54.72334184 75.17859332 -52.890625 66.6171875 C-52.69984375 65.77414062 -52.5090625 64.93109375 -52.3125 64.0625 C-49.71829434 53.41027572 -49.71829434 53.41027572 -52.75 43.1875 C-57.24993421 34.95685111 -57.58021175 26.15480465 -55.1875 17.0625 C-53.48154223 12.04923731 -50.77396127 8.2709916 -47.3125 4.3125 C-46.57 3.425625 -45.8275 2.53875 -45.0625 1.625 C-31.84719463 -9.48787043 -14.13014745 -9.6074298 0 0 Z M-35.75 18.375 C-38.17094646 22.92637934 -38.73373522 26.1734303 -38.3125 31.3125 C-37.20431807 34.10489902 -35.77455662 36.69124135 -34.3125 39.3125 C-29.37425784 48.50784748 -32.5207039 58.11923027 -34.375 67.9375 C-35.014375 71.36125 -35.65375 74.785 -36.3125 78.3125 C-26.7425 78.3125 -17.1725 78.3125 -7.3125 78.3125 C-8.67680312 69.24402424 -8.67680312 69.24402424 -10.4375 60.25 C-12.41314455 50.24222677 -11.98044841 43.6888767 -6.66796875 34.90625 C-4.58713295 30.92447776 -4.26872391 27.66289499 -5.3125 23.3125 C-7.17358703 18.53655977 -9.68447412 15.30931396 -14.1875 12.8125 C-22.49818994 9.32636789 -30.21077028 11.41545496 -35.75 18.375 Z " fill="#000000" transform="translate(431.3125,364.6875)"/>
<path d="M0 0 C4.38710608 0.99345699 7.06580368 4.40308187 10.15625 7.48828125 C11.61443815 8.83182564 13.07305054 10.17493529 14.53833008 11.51074219 C20.81463059 17.24247159 26.99779609 23.07658724 33.1887207 28.90014648 C36.40273839 31.92055333 39.62641964 34.92798132 42.88671875 37.8984375 C43.47130859 38.43210938 44.05589844 38.96578125 44.65820312 39.515625 C45.73845246 40.49949056 46.82153942 41.48025488 47.90820312 42.45703125 C57.72033893 51.40072175 57.72033893 51.40072175 58.39453125 57.72265625 C58.41902344 58.5528125 58.44351563 59.38296875 58.46875 60.23828125 C58.52482422 61.46804687 58.52482422 61.46804687 58.58203125 62.72265625 C57.3905012 70.46213587 51.73993537 75.17838339 46.21875 80.17578125 C45.46021729 80.87566162 44.70168457 81.57554199 43.92016602 82.29663086 C41.67247312 84.3682383 39.41493799 86.42867798 37.15625 88.48828125 C35.47894258 90.03314579 33.8046769 91.58123953 32.13085938 93.12988281 C31.1074169 94.0759494 30.08267867 95.0206162 29.05664062 95.96386719 C26.02295246 98.75326961 23.00849848 101.56181667 20.0078125 104.38671875 C19.29568604 105.05695068 18.58355957 105.72718262 17.84985352 106.41772461 C16.46871508 107.71911809 15.08890951 109.02192814 13.71069336 110.32641602 C11.87069303 112.06003367 10.01940782 113.7795941 8.15625 115.48828125 C7.33338501 116.2452832 7.33338501 116.2452832 6.49389648 117.01757812 C1.765804 121.18868277 1.765804 121.18868277 -1.90625 121.11328125 C-5.84375 120.48828125 -5.84375 120.48828125 -8.84375 118.48828125 C-10.91929292 115.37496687 -11.48119516 113.3977402 -11.37890625 109.66845703 C-10.27919775 105.18834897 -6.64162369 102.44006119 -3.34375 99.42578125 C-2.29960937 98.42321289 -2.29960937 98.42321289 -1.234375 97.40039062 C2.78886982 93.56713237 6.951513 89.90571361 11.14697266 86.26342773 C14.71172243 83.1140601 18.14558488 79.826597 21.59375 76.55078125 C27.36198112 71.0937517 33.15309689 65.68759334 39.15625 60.48828125 C37.32619917 58.63077965 35.49232989 56.77730893 33.65625 54.92578125 C33.1509375 54.41208984 32.645625 53.89839844 32.125 53.36914062 C28.61360168 49.83579606 24.95814568 46.53026422 21.19140625 43.27172852 C17.85097142 40.34444008 14.63310205 37.28956048 11.40625 34.23828125 C5.47056941 28.64142386 -0.51952352 23.11496991 -6.5859375 17.66015625 C-9.34412759 15.00694917 -10.76428179 13.42203267 -11.09375 9.55078125 C-10.84869322 6.54883565 -10.51726315 4.95451116 -8.84375 2.48828125 C-5.71138965 0.40004101 -3.74797884 -0.12900652 0 0 Z " fill="#000000" transform="translate(257.84375,161.51171875)"/>
<path d="M0 0 C3.02644741 0.81271333 4.28204992 1.88375352 5.94921875 4.5234375 C7.11853771 8.10934898 7.21522759 9.8561301 5.8125 13.375 C3.72678697 16.89928658 1.24939169 19.36506349 -1.80078125 22.0234375 C-2.97327941 23.07482631 -4.1451284 24.1269394 -5.31640625 25.1796875 C-5.92806641 25.72496094 -6.53972656 26.27023438 -7.16992188 26.83203125 C-10.34007247 29.68286242 -13.44208231 32.6059626 -16.55078125 35.5234375 C-21.92644208 40.55243837 -27.32301688 45.55781746 -32.75195312 50.52929688 C-35.16994779 52.75132335 -37.51095947 55.00000383 -39.79296875 57.36328125 C-42.05078125 59.5234375 -42.05078125 59.5234375 -44.05078125 59.5234375 C-43.32503906 60.24789062 -42.59929687 60.97234375 -41.8515625 61.71875 C-40.11448083 63.45825437 -38.3818299 65.20221032 -36.65625 66.953125 C-35.85832031 67.76007813 -35.06039062 68.56703125 -34.23828125 69.3984375 C-33.44808594 70.20023437 -32.65789062 71.00203125 -31.84375 71.828125 C-29.02173371 74.5514694 -26.10246063 77.11632773 -23.14086914 79.68505859 C-19.74221807 82.67441061 -16.46315139 85.78784675 -13.17578125 88.8984375 C-7.78323219 93.98514237 -2.34875213 99.00017421 3.2265625 103.88671875 C5.95586383 106.47986446 5.9469245 107.48787657 6.19921875 111.3984375 C6.13897126 113.95200434 5.93896258 115.55010354 5.01171875 117.9609375 C2.19312405 120.09623652 -0.15003945 120.63897312 -3.66015625 120.87109375 C-8.31319429 120.19442645 -10.90292731 116.77245121 -14.05078125 113.5234375 C-15.54212002 112.18042356 -17.04275238 110.84768322 -18.55078125 109.5234375 C-24.39927278 104.24815188 -30.130337 98.84905887 -35.8671875 93.453125 C-38.638838 90.84656931 -41.41725559 88.24760309 -44.203125 85.65625 C-44.87061768 85.03516357 -45.53811035 84.41407715 -46.22583008 83.77416992 C-47.48399742 82.60421765 -48.74289595 81.43505097 -50.00268555 80.2668457 C-62.84921677 68.31260961 -62.84921677 68.31260961 -63.1484375 61.203125 C-62.88655709 54.35233349 -60.66561828 50.44459849 -56.05078125 45.5234375 C-54.83131473 44.41531214 -53.59352203 43.32707916 -52.33984375 42.2578125 C-48.11355252 38.60265481 -44.0423061 34.80520565 -39.98828125 30.9609375 C-38.49761209 29.55315639 -37.00672222 28.14560896 -35.515625 26.73828125 C-34.7716748 26.03558105 -34.02772461 25.33288086 -33.26123047 24.60888672 C-28.64568886 20.25435211 -24.01726725 15.91436155 -19.35546875 11.609375 C-17.32984768 9.73558924 -15.37501927 7.83960672 -13.43359375 5.875 C-9.15224129 1.65290501 -6.19942221 -0.62751569 0 0 Z " fill="#000000" transform="translate(139.05078125,161.4765625)"/>
<path d="M0 0 C3.18400712 2.44923624 4.78474792 4.49411222 5.35588074 8.48971558 C4.83524919 13.62504499 2.61940234 17.59629844 0.3059082 22.16455078 C-0.193246 23.17337311 -0.69240021 24.18219543 -1.2066803 25.22158813 C-2.85883991 28.55229938 -4.52838974 31.8739321 -6.19921875 35.1953125 C-7.35379638 37.50850956 -8.50766128 39.82206249 -9.6608429 42.13595581 C-12.08015238 46.98342057 -14.50785686 51.82654397 -16.94213867 56.66650391 C-19.75247293 62.25452862 -22.54541866 67.85098511 -25.32947797 73.45214093 C-28.01278867 78.8493184 -30.70958851 84.23962337 -33.41214943 89.62719345 C-34.55873818 91.9163688 -35.70176469 94.20733198 -36.84116173 96.50009537 C-38.43554164 99.70409571 -40.04511189 102.8999973 -41.65893555 106.09423828 C-42.12719757 107.04290771 -42.59545959 107.99157715 -43.07791138 108.96899414 C-45.44696175 113.61690364 -47.37138567 117.25177597 -52 120 C-56.3968344 120.7066341 -58.23727467 120.51930235 -61.9375 118 C-64.53158118 114.22679101 -64.68342121 111.39928039 -64 107 C-62.73787879 103.37077161 -61.03695841 100.01027155 -59.29003906 96.5925293 C-58.53889832 95.07644829 -58.53889832 95.07644829 -57.77258301 93.52973938 C-56.11922676 90.20316894 -54.44308776 86.88869009 -52.765625 83.57421875 C-51.60824498 81.26168887 -50.45199054 78.94859534 -49.29681396 76.63496399 C-46.87551297 71.7941036 -44.44374455 66.95873112 -42.00292969 62.12768555 C-39.18351411 56.54698572 -36.38257774 50.95731942 -33.59167314 45.36231297 C-30.90157753 39.97011459 -28.2000323 34.58375987 -25.49297333 29.20005226 C-24.34369481 26.91238232 -23.19706096 24.6233818 -22.05310822 22.33304405 C-20.45443219 19.13711657 -18.8429004 15.94801733 -17.22753906 12.76049805 C-16.75568176 11.81137543 -16.28382446 10.86225281 -15.79766846 9.8843689 C-15.35463379 9.01673416 -14.91159912 8.14909943 -14.45513916 7.25517273 C-14.07536045 6.50139689 -13.69558174 5.74762106 -13.30429459 4.97100353 C-9.94010892 -0.11283405 -5.74958313 -1.09796967 0 0 Z " fill="#000000" transform="translate(226,162)"/>
<path d="M0 0 C1.16478378 -0.01583633 2.32956757 -0.03167267 3.52964783 -0.04798889 C4.78387039 -0.04302902 6.03809296 -0.03806915 7.33032227 -0.03295898 C9.268395 -0.04225685 9.268395 -0.04225685 11.24562073 -0.05174255 C13.97854444 -0.06214113 16.71094732 -0.05759469 19.44384766 -0.04296875 C22.93913677 -0.02579013 26.43278053 -0.04926355 29.92788601 -0.08445835 C33.27046105 -0.11175532 36.61264094 -0.10169438 39.95532227 -0.09545898 C41.83361977 -0.1153463 41.83361977 -0.1153463 43.74986267 -0.13563538 C53.40172209 -0.03206135 53.40172209 -0.03206135 56.49829102 2.94165039 C59.1625977 6.97764921 58.88988854 8.76882708 58.20922852 13.53344727 C56.00182171 16.50202883 54.72325479 17.36210517 51.20922852 18.53344727 C49.44138073 18.63624911 47.66995896 18.68192372 45.89916992 18.69458008 C44.81439362 18.70418762 43.72961731 18.71379517 42.61196899 18.72369385 C41.44008026 18.72794373 40.26819153 18.7321936 39.06079102 18.73657227 C37.85611176 18.74227234 36.6514325 18.74797241 35.4102478 18.75384521 C32.85985188 18.76329732 30.30944373 18.76983003 27.7590332 18.77368164 C23.85679854 18.78339111 19.95508962 18.81441505 16.05297852 18.84594727 C13.57641915 18.85247691 11.09985601 18.85772753 8.62329102 18.86157227 C6.87153061 18.88009247 6.87153061 18.88009247 5.0843811 18.89898682 C3.99330048 18.89598572 2.90221985 18.89298462 1.77807617 18.88989258 C0.82115875 18.89353821 -0.13575867 18.89718384 -1.12167358 18.90093994 C-4.96834392 18.37131412 -7.76001446 16.84531984 -10.16577148 13.78344727 C-11.1077495 10.3923264 -10.63829348 7.92353523 -9.79077148 4.53344727 C-6.80908367 0.68399871 -4.79892716 0.02904465 0 0 Z " fill="#000000" transform="translate(291.790771484375,33.466552734375)"/>
<path d="M0 0 C0.76828125 -0.02900391 1.5365625 -0.05800781 2.328125 -0.08789062 C6.08295172 -0.13011619 7.99996406 -0.14225056 11.10546875 2.1171875 C13.25191485 5.21822275 13.55923202 7.56372532 13.625 11.3125 C12.42746122 14.14877605 11.49895324 15.74512717 8.91015625 17.42578125 C3.66166752 19.46237431 -3.14580301 19.24016022 -8.5234375 17.6953125 C-10.84509318 16.41557059 -12.151843 14.930374 -13.05078125 12.44140625 C-13.72897685 8.81751257 -13.58423183 6.78078076 -12.0625 3.375 C-8.78256596 -0.63380827 -4.82215882 0.06007673 0 0 Z " fill="#000000" transform="translate(55.375,33.6875)"/>
<path d="M0 0 C0.75087891 -0.02384766 1.50175781 -0.04769531 2.27539062 -0.07226562 C6.47428018 -0.06118676 8.1307258 0.22911185 11.5625 2.87890625 C13.5625 5.5625 13.5625 5.5625 14.125 9.0625 C13.47838349 13.08589163 12.46231674 14.74553517 9.5625 17.5625 C6.25914934 18.66361689 3.66417863 18.76476528 0.1875 18.8125 C-0.93398437 18.83828125 -2.05546875 18.8640625 -3.2109375 18.890625 C-6.76389283 18.52930751 -8.60000117 17.68804458 -11.4375 15.5625 C-12.58743366 13.26263269 -12.6691929 11.74780912 -12.75 9.1875 C-12.78738281 8.41664062 -12.82476562 7.64578125 -12.86328125 6.8515625 C-11.58100462 -0.0421449 -5.92535548 -0.08602139 0 0 Z " fill="#000000" transform="translate(140.4375,33.4375)"/>
<path d="M0 0 C0.69867188 -0.01095703 1.39734375 -0.02191406 2.1171875 -0.03320312 C5.67607404 0.01715848 7.89035783 0.49763922 10.96484375 2.31640625 C13.23239956 4.81898703 13.65910967 5.74367361 13.5625 9.0625 C13.3812822 12.30310072 13.14326063 13.36489913 11.1875 16.0625 C7.53144475 18.56950932 4.4546952 18.74771653 0.125 18.8125 C-1.41800781 18.85117187 -1.41800781 18.85117187 -2.9921875 18.890625 C-6.4392797 18.51457858 -8.23592829 17.62351514 -11 15.5625 C-13.50031654 11.81202518 -13.53603554 10.00393734 -13 5.5625 C-9.24664729 0.5797254 -5.97869639 -0.2040699 0 0 Z " fill="#000000" transform="translate(98,33.4375)"/>
</svg>
