<svg width="139" height="139" viewBox="0 0 139 139" fill="none" xmlns="http://www.w3.org/2000/svg">
<path d="M69.3225 17.375C71.7153 17.375 73.6551 19.3198 73.6551 21.7188V34.75C73.6551 37.149 71.7153 39.0938 69.3225 39.0938C66.9296 39.0938 64.9898 37.149 64.9898 34.75V21.7188C64.9898 19.3198 66.9296 17.375 69.3225 17.375Z" fill="black"/>
<path d="M32.341 32.4238C34.033 30.7274 36.7763 30.7274 38.4683 32.4238L46.3902 40.366C48.0822 42.0623 48.0822 44.8127 46.3902 46.509C44.6982 48.2053 41.9549 48.2053 40.2629 46.509L32.341 38.5668C30.649 36.8704 30.649 34.1201 32.341 32.4238Z" fill="black"/>
<path d="M17.3306 69.5C17.3306 67.101 19.2704 65.1562 21.6633 65.1562H35.4046C37.7975 65.1562 39.7373 67.101 39.7373 69.5C39.7373 71.899 37.7975 73.8438 35.4046 73.8438H21.6633C19.2704 73.8438 17.3306 71.899 17.3306 69.5Z" fill="black"/>
<path d="M99.6511 69.5C99.6511 67.101 101.591 65.1562 103.984 65.1562L116.982 65.1562C119.375 65.1562 121.314 67.101 121.314 69.5C121.314 71.899 119.375 73.8438 116.982 73.8438H103.984C101.591 73.8438 99.6511 71.899 99.6511 69.5Z" fill="black"/>
<path d="M106.188 32.6148C104.944 31.3682 102.954 31.2908 101.618 32.437L65.3994 63.5105C61.9091 66.5051 61.7024 71.8455 64.9508 75.1022C68.274 78.4341 73.7487 78.1283 76.6823 74.4471L106.437 37.1089C107.508 35.7657 107.4 33.8305 106.188 32.6148Z" fill="black"/>
<path fill-rule="evenodd" clip-rule="evenodd" d="M57.7435 138.035C24.9697 132.51 0 103.928 0 69.5C0 31.1162 31.0367 0 69.3225 0C107.608 0 138.645 31.1162 138.645 69.5C138.645 82.6737 134.989 94.9914 128.639 105.489C116.487 125.577 94.4684 139 69.3229 139C65.3775 139 61.5088 138.67 57.7435 138.035ZM17.3222 100.827C32.6188 91.9536 50.3793 86.875 69.3229 86.875C88.2662 86.875 106.026 91.9535 121.323 100.827C126.819 91.6771 129.98 80.9586 129.98 69.5C129.98 35.9142 102.823 8.6875 69.3225 8.6875C35.8225 8.6875 8.66531 35.9142 8.66531 69.5C8.66531 80.9588 11.8265 91.6773 17.3222 100.827Z" fill="black"/>
</svg>
