<?xml version="1.0" encoding="UTF-8"?>
<svg version="1.1" xmlns="http://www.w3.org/2000/svg" width="512" height="512">
<path d="M0 0 C0.6699158 -0.00235223 1.33983159 -0.00470446 2.03004786 -0.00712797 C4.28496329 -0.01380878 6.53982096 -0.01336003 8.79474545 -0.01294994 C10.42377988 -0.01624914 12.0528135 -0.01997483 13.68184608 -0.02409142 C18.1665964 -0.03411322 22.65133333 -0.03782851 27.13609326 -0.04048073 C31.96995845 -0.04438327 36.80381304 -0.05396167 41.63767147 -0.0626936 C53.31580117 -0.08245978 64.99393174 -0.09252457 76.67207399 -0.10142139 C82.17115533 -0.10580417 87.67023571 -0.11117102 93.16931629 -0.11641026 C111.44908002 -0.13342294 129.72884315 -0.14791709 148.00861359 -0.155159 C152.75274882 -0.1570689 157.49688404 -0.15898923 162.24101925 -0.16094494 C163.42015528 -0.16142868 164.59929131 -0.16191242 165.81415873 -0.16241082 C184.91508888 -0.17071099 204.0159564 -0.19604753 223.11685921 -0.22852562 C242.7261454 -0.26159635 262.33539978 -0.27960779 281.94471401 -0.28280324 C292.95508262 -0.28496835 303.9653599 -0.29371726 314.97570133 -0.31926441 C324.35277507 -0.3409716 333.72973531 -0.34902172 343.10683132 -0.33929763 C347.88996498 -0.33475297 352.67286446 -0.33664891 357.455966 -0.35605907 C361.83893384 -0.37369159 366.22149667 -0.37269231 370.60446882 -0.35716178 C372.18596608 -0.35478585 373.76749139 -0.35910854 375.3489458 -0.37099043 C390.16070532 -0.47533845 402.88896476 3.05050138 414.04155636 13.25922108 C425.68610684 25.75715469 427.81100946 39.86427262 427.74173641 56.25137806 C427.74591523 57.86853216 427.75139574 59.48568332 427.75805622 61.1028291 C427.77245768 65.52235426 427.76828276 69.94169209 427.76088941 74.36122727 C427.75614688 79.13707761 427.76867718 83.91288805 427.77890682 88.68872547 C427.79607891 98.03557695 427.79693813 107.38236115 427.79169392 116.72922431 C427.78764802 124.32849535 427.78910077 131.92774655 427.79444218 139.52701664 C427.7951906 140.60971446 427.79593902 141.69241228 427.79671012 142.80791912 C427.79824164 145.00761175 427.79977999 147.20730437 427.80132509 149.40699698 C427.81504438 170.02258322 427.80961645 190.63813148 427.79813988 211.25371684 C427.78820814 230.10066409 427.80114819 248.94751316 427.82507407 267.79444526 C427.8494752 287.16214903 427.85907044 306.52980708 427.85242134 325.89752591 C427.84893138 336.76476181 427.85114652 347.63192221 427.86867237 358.49914646 C427.883407 367.75011019 427.88401326 377.00094526 427.86660146 386.2519065 C427.85809952 390.96849466 427.85592222 395.6848531 427.87125301 400.40142918 C427.88513406 404.72564216 427.88029329 409.04942934 427.86101378 413.3736179 C427.85726391 414.93138236 427.86014629 416.4891812 427.87062543 418.04691492 C427.95567233 431.66604489 425.84168769 443.19609251 417.35405636 454.13422108 C416.24030636 455.68109608 416.24030636 455.68109608 415.10405636 457.25922108 C408.34591532 464.32455034 400.66055969 468.36902999 391.35405636 471.13422108 C390.77929072 471.31143812 390.20452508 471.48865516 389.6123423 471.67124242 C386.63501544 472.28163403 383.81642961 472.26384264 380.77616882 472.26844215 C379.78232416 472.2719705 379.78232416 472.2719705 378.76840183 472.27557012 C376.53847847 472.28225034 374.30861351 472.2818022 372.07868099 472.2813921 C370.46757113 472.28469135 368.8564621 472.28841704 367.24535412 472.29253358 C362.81007131 472.30255503 358.37480204 472.30627062 353.93950951 472.30892289 C349.15877623 472.31282559 344.37805367 472.32240406 339.59732723 472.33113575 C328.04673716 472.35090269 316.4961462 472.36096735 304.94554344 472.36986354 C299.50549554 472.37424668 294.06544862 472.37961348 288.6254015 472.38485241 C270.53951278 472.40186607 252.45362468 472.41635954 234.36772919 472.42360115 C229.67379982 472.42551104 224.97987047 472.42743137 220.28594112 472.42938709 C218.5359677 472.4301127 218.5359677 472.4301127 216.75064128 472.43085297 C197.85799075 472.4391506 178.9654036 472.46448242 160.07278074 472.49696777 C140.67366717 472.53005184 121.2745858 472.54805119 101.87544388 472.55124539 C90.98461856 472.5534094 80.09388561 472.56214195 69.20308781 472.58770657 C59.92634889 472.60943208 50.64972478 472.61745491 41.37296332 472.60773978 C36.64223776 472.60320027 31.91174898 472.605061 27.18105602 472.62450123 C22.84362609 472.64217088 18.506605 472.64110449 14.16917049 472.62560394 C12.60647999 472.6232336 11.04376089 472.6275214 9.48111398 472.63943259 C-4.15639901 472.73687989 -15.69219211 470.63397532 -26.64594364 462.13422108 C-28.19281864 461.02047108 -28.19281864 461.02047108 -29.77094364 459.88422108 C-36.83627291 453.12608004 -40.88075256 445.4407244 -43.64594364 436.13422108 C-43.82316068 435.55945544 -44.00037773 434.9846898 -44.18296498 434.39250702 C-44.79335659 431.41518016 -44.7755652 428.59659433 -44.78016472 425.55633354 C-44.78251695 424.89377043 -44.78486918 424.23120733 -44.78729269 423.54856655 C-44.7939729 421.31864319 -44.79352476 419.08877823 -44.79311466 416.85884571 C-44.79641391 415.24773585 -44.80013961 413.63662681 -44.80425614 412.02551883 C-44.8142776 407.59023603 -44.81799318 403.15496675 -44.82064545 398.71967423 C-44.82454815 393.93894095 -44.83412662 389.15821839 -44.84285831 384.37749195 C-44.86262525 372.82690188 -44.87268992 361.27631092 -44.8815861 349.72570816 C-44.88596924 344.28566026 -44.89133604 338.84561334 -44.89657497 333.40556622 C-44.91358863 315.3196775 -44.9280821 297.23378939 -44.93532372 279.14789391 C-44.9372336 274.45396454 -44.93915393 269.76003519 -44.94110966 265.06610584 C-44.9415934 263.89945689 -44.94207714 262.73280794 -44.94257554 261.530806 C-44.95087317 242.63815547 -44.97620498 223.74556832 -45.00869033 204.85294545 C-45.04177441 185.45383189 -45.05977376 166.05475052 -45.06296796 146.65560859 C-45.06513196 135.76478328 -45.07386451 124.87405033 -45.09942913 113.98325253 C-45.12115464 104.70651361 -45.12917747 95.4298895 -45.11946235 86.15312804 C-45.11492284 81.42240248 -45.11678356 76.6919137 -45.13622379 71.96122074 C-45.15389344 67.62379081 -45.15282706 63.28676972 -45.1373265 58.94933521 C-45.13495617 57.3866447 -45.13924396 55.8239256 -45.15115515 54.2612787 C-45.26270482 38.65017392 -42.05230386 25.50257674 -31.42719364 13.66156483 C-22.7476163 5.22152128 -12.12828961 0.01814538 0 0 Z M-20.64594364 114.13422108 C-20.64594364 135.58422108 -20.64594364 157.03422108 -20.64594364 179.13422108 C20.60405636 179.13422108 61.85405636 179.13422108 104.35405636 179.13422108 C104.35405636 157.68422108 104.35405636 136.23422108 104.35405636 114.13422108 C63.10405636 114.13422108 21.85405636 114.13422108 -20.64594364 114.13422108 Z M129.35405636 114.13422108 C129.35405636 135.58422108 129.35405636 157.03422108 129.35405636 179.13422108 C170.27405636 179.13422108 211.19405636 179.13422108 253.35405636 179.13422108 C253.35405636 157.68422108 253.35405636 136.23422108 253.35405636 114.13422108 C212.43405636 114.13422108 171.51405636 114.13422108 129.35405636 114.13422108 Z M278.35405636 114.13422108 C278.35405636 135.58422108 278.35405636 157.03422108 278.35405636 179.13422108 C319.60405636 179.13422108 360.85405636 179.13422108 403.35405636 179.13422108 C403.35405636 157.68422108 403.35405636 136.23422108 403.35405636 114.13422108 C362.10405636 114.13422108 320.85405636 114.13422108 278.35405636 114.13422108 Z M-20.64594364 204.13422108 C-20.64594364 225.25422108 -20.64594364 246.37422108 -20.64594364 268.13422108 C20.60405636 268.13422108 61.85405636 268.13422108 104.35405636 268.13422108 C104.35405636 247.01422108 104.35405636 225.89422108 104.35405636 204.13422108 C63.10405636 204.13422108 21.85405636 204.13422108 -20.64594364 204.13422108 Z M129.35405636 204.13422108 C129.35405636 225.25422108 129.35405636 246.37422108 129.35405636 268.13422108 C170.27405636 268.13422108 211.19405636 268.13422108 253.35405636 268.13422108 C253.35405636 247.01422108 253.35405636 225.89422108 253.35405636 204.13422108 C212.43405636 204.13422108 171.51405636 204.13422108 129.35405636 204.13422108 Z M278.35405636 204.13422108 C278.35405636 225.25422108 278.35405636 246.37422108 278.35405636 268.13422108 C319.60405636 268.13422108 360.85405636 268.13422108 403.35405636 268.13422108 C403.35405636 247.01422108 403.35405636 225.89422108 403.35405636 204.13422108 C362.10405636 204.13422108 320.85405636 204.13422108 278.35405636 204.13422108 Z M-20.64594364 293.13422108 C-20.64594364 314.58422108 -20.64594364 336.03422108 -20.64594364 358.13422108 C20.60405636 358.13422108 61.85405636 358.13422108 104.35405636 358.13422108 C104.35405636 336.68422108 104.35405636 315.23422108 104.35405636 293.13422108 C63.10405636 293.13422108 21.85405636 293.13422108 -20.64594364 293.13422108 Z M129.35405636 293.13422108 C129.35405636 314.58422108 129.35405636 336.03422108 129.35405636 358.13422108 C170.27405636 358.13422108 211.19405636 358.13422108 253.35405636 358.13422108 C253.35405636 336.68422108 253.35405636 315.23422108 253.35405636 293.13422108 C212.43405636 293.13422108 171.51405636 293.13422108 129.35405636 293.13422108 Z M278.35405636 293.13422108 C278.35405636 314.58422108 278.35405636 336.03422108 278.35405636 358.13422108 C319.60405636 358.13422108 360.85405636 358.13422108 403.35405636 358.13422108 C403.35405636 336.68422108 403.35405636 315.23422108 403.35405636 293.13422108 C362.10405636 293.13422108 320.85405636 293.13422108 278.35405636 293.13422108 Z M-19.64594364 383.13422108 C-23.17213001 412.64910714 -23.17213001 412.64910714 -13.68109989 440.47406483 C-5.06743336 447.45028188 2.45185714 448.29003504 13.30669308 448.24774647 C14.78567326 448.24796551 14.78567326 448.24796551 16.29453182 448.24818897 C19.54095851 448.24749447 22.78732724 448.23972369 26.03374386 448.23187733 C28.28961309 448.23001151 30.54548272 448.22858838 32.8013525 448.22758961 C38.72951539 448.22377735 44.65765366 448.21395808 50.58580685 448.20288563 C57.70358935 448.190842 64.8213801 448.18626312 71.93916988 448.18043232 C82.74414915 448.17074565 93.54907442 448.15158003 104.35405636 448.13422108 C104.35405636 426.68422108 104.35405636 405.23422108 104.35405636 383.13422108 C63.43405636 383.13422108 22.51405636 383.13422108 -19.64594364 383.13422108 Z M129.35405636 383.13422108 C129.35405636 404.58422108 129.35405636 426.03422108 129.35405636 448.13422108 C170.27405636 448.13422108 211.19405636 448.13422108 253.35405636 448.13422108 C253.35405636 426.68422108 253.35405636 405.23422108 253.35405636 383.13422108 C212.43405636 383.13422108 171.51405636 383.13422108 129.35405636 383.13422108 Z M278.35405636 383.13422108 C278.35405636 404.25422108 278.35405636 425.37422108 278.35405636 447.13422108 C296.97414938 447.2506206 296.97414938 447.2506206 315.59429073 447.32953358 C323.19197968 447.35341798 330.78947526 447.38163293 338.38701534 447.43597889 C344.51432123 447.47953239 350.64141967 447.50337857 356.76886845 447.51373005 C359.10318484 447.52110429 361.43749026 447.53550441 363.77171803 447.5571413 C367.0486787 447.58630076 370.32478895 447.59017172 373.60185909 447.58832264 C374.56067989 447.60270374 375.51950069 447.61708485 376.50737667 447.63190174 C383.85319195 447.58723365 389.98802982 445.96078427 395.69390011 441.16937733 C409.17942744 424.51854284 403.35405636 404.9745924 403.35405636 383.13422108 C362.10405636 383.13422108 320.85405636 383.13422108 278.35405636 383.13422108 Z " fill="#000000" transform="translate(64.6459436416626,19.865778923034668)"/>
</svg>
